<svg width="41" height="40" viewBox="0 0 41 40" fill="none" xmlns="http://www.w3.org/2000/svg">
<g id="Regroup">
<path id="Vector 9" d="M7.16663 30L6.10597 28.9393L5.0453 30L6.10597 31.0606L7.16663 30ZM33.6666 21.6666C33.6666 20.8382 32.9951 20.1666 32.1666 20.1666C31.3382 20.1666 30.6666 20.8382 30.6666 21.6666L33.6666 21.6666ZM12.7726 22.2726L6.10597 28.9393L8.22729 31.0606L14.894 24.394L12.7726 22.2726ZM6.10597 31.0606L12.7726 37.7273L14.894 35.606L8.22729 28.9393L6.10597 31.0606ZM7.16663 31.5L28.1666 31.5L28.1666 28.5L7.16663 28.5L7.16663 31.5ZM33.6666 26L33.6666 21.6666L30.6666 21.6666L30.6666 26L33.6666 26ZM28.1666 31.5C31.2042 31.5 33.6666 29.0375 33.6666 26L30.6666 26C30.6666 27.3807 29.5473 28.5 28.1666 28.5L28.1666 31.5Z" fill="#F49F1C"/>
<path id="Vector 10" d="M33.8334 10L34.894 11.0607L35.9547 10L34.894 8.93938L33.8334 10ZM7.33337 18.3334C7.33337 19.1618 8.00495 19.8334 8.83337 19.8334C9.6618 19.8334 10.3334 19.1618 10.3334 18.3334L7.33337 18.3334ZM28.2274 17.7274L34.894 11.0607L32.7727 8.93938L26.106 15.606L28.2274 17.7274ZM34.894 8.93938L28.2274 2.27271L26.106 4.39403L32.7727 11.0607L34.894 8.93938ZM33.8334 8.50004L12.8334 8.50004L12.8334 11.5L33.8334 11.5L33.8334 8.50004ZM7.33337 14L7.33337 18.3334L10.3334 18.3334L10.3334 14L7.33337 14ZM12.8334 8.50004C9.79581 8.50004 7.33337 10.9625 7.33337 14L10.3334 14C10.3334 12.6193 11.4527 11.5 12.8334 11.5L12.8334 8.50004Z" fill="#F49F1C"/>
</g>
</svg>
