<svg width="57" height="56" viewBox="0 0 57 56" fill="none" xmlns="http://www.w3.org/2000/svg">
<g id="material-symbols:check-small-rounded">
<path id="Vector" d="M23.8334 31.7333L37.6 17.9666C38.0278 17.5388 38.5723 17.325 39.2334 17.325C39.8945 17.325 40.4389 17.5388 40.8667 17.9666C41.2945 18.3944 41.5084 18.9388 41.5084 19.5999C41.5084 20.2611 41.2945 20.8055 40.8667 21.2333L25.4667 36.6333C25 37.0999 24.4556 37.3333 23.8334 37.3333C23.2111 37.3333 22.6667 37.0999 22.2 36.6333L16.1334 30.5666C15.7056 30.1388 15.4917 29.5944 15.4917 28.9333C15.4917 28.2722 15.7056 27.7277 16.1334 27.2999C16.5611 26.8722 17.1056 26.6583 17.7667 26.6583C18.4278 26.6583 18.9723 26.8722 19.4 27.2999L23.8334 31.7333Z" fill="#F49F1C"/>
</g>
</svg>
