<svg width="73" height="72" viewBox="0 0 73 72" fill="none" xmlns="http://www.w3.org/2000/svg">
<g id="Frame 4272">
<g id="Ellipse 44" filter="url(#filter0_b_41_7181)">
<circle cx="36.5" cy="36" r="36" fill="white" fill-opacity="0.1"/>
</g>
<path id="&#239;&#148;&#189;" d="M53.125 23H19.375C18.3203 23 17.5 23.8789 17.5 24.875V47.375C17.5 48.4297 18.3203 49.25 19.375 49.25H53.125C54.1211 49.25 55 48.4297 55 47.375V24.875C55 23.8789 54.1211 23 53.125 23ZM27.8125 40.3438V41.2812C27.8125 41.5742 27.5781 41.75 27.3438 41.75H26.4062C26.1133 41.75 25.9375 41.5742 25.9375 41.2812V40.3438C25.2344 40.3438 24.5898 40.1094 24.0625 39.6992C23.8281 39.5234 23.8281 39.1719 24.0625 38.9961L24.707 38.3516C24.8828 38.1758 25.1172 38.1758 25.293 38.293C25.5273 38.4102 25.8203 38.4688 26.0547 38.4688H27.6953C28.1055 38.4688 28.3984 38.1758 28.3984 37.707C28.3984 37.3555 28.2227 37.0625 27.8711 37.0039L25.2344 36.1836C24.1797 35.832 23.418 34.8359 23.418 33.6641C23.418 32.1992 24.5312 31.0273 25.8789 31.0273V30.0312C25.8789 29.7969 26.1133 29.5625 26.3477 29.5625H27.2852C27.5781 29.5625 27.7539 29.7969 27.7539 30.0312V31.0273C28.457 31.0273 29.1016 31.2617 29.6289 31.6719C29.8633 31.8477 29.8633 32.1992 29.6289 32.375L28.9844 33.0195C28.8086 33.1953 28.5742 33.1953 28.3984 33.0781C28.1641 32.9609 27.8711 32.8438 27.6367 32.8438H25.9961C25.5859 32.8438 25.293 33.1953 25.293 33.6641C25.293 34.0156 25.4688 34.3086 25.8203 34.3672L28.457 35.1875C29.5117 35.4805 30.2734 36.5352 30.2734 37.707C30.2734 39.1719 29.1602 40.3438 27.8125 40.3438ZM41.875 39.4062C41.875 39.6992 41.6406 39.875 41.4062 39.875H34.8438C34.5508 39.875 34.375 39.6992 34.375 39.4062V38.4688C34.375 38.2344 34.5508 38 34.8438 38H41.4062C41.6406 38 41.875 38.2344 41.875 38.4688V39.4062ZM51.25 39.4062C51.25 39.6992 51.0156 39.875 50.7812 39.875H46.0938C45.8008 39.875 45.625 39.6992 45.625 39.4062V38.4688C45.625 38.2344 45.8008 38 46.0938 38H50.7812C51.0156 38 51.25 38.2344 51.25 38.4688V39.4062ZM51.25 33.7812C51.25 34.0742 51.0156 34.25 50.7812 34.25H34.8438C34.5508 34.25 34.375 34.0742 34.375 33.7812V32.8438C34.375 32.6094 34.5508 32.375 34.8438 32.375H50.7812C51.0156 32.375 51.25 32.6094 51.25 32.8438V33.7812Z" fill="#F49F1C"/>
</g>
<defs>
<filter id="filter0_b_41_7181" x="-3.5" y="-4" width="80" height="80" filterUnits="userSpaceOnUse" color-interpolation-filters="sRGB">
<feFlood flood-opacity="0" result="BackgroundImageFix"/>
<feGaussianBlur in="BackgroundImageFix" stdDeviation="2"/>
<feComposite in2="SourceAlpha" operator="in" result="effect1_backgroundBlur_41_7181"/>
<feBlend mode="normal" in="SourceGraphic" in2="effect1_backgroundBlur_41_7181" result="shape"/>
</filter>
</defs>
</svg>
